<svg version="1" xmlns="http://www.w3.org/2000/svg" width="346.667" height="346.667" viewBox="0 0 260.000000 260.000000"><path d="M115.8 1.5c-.2.2-2.3.6-4.8 1-13.6 1.9-26.1 6-39.7 12.9-35 17.7-59.4 49.9-67.9 89.6-1.9 9-2.6 36.6-1 44.5 5.7 29.9 16.2 50.7 35.4 70.3 30.1 30.9 72.6 44.6 114.7 37.1 26.7-4.8 49.2-16.6 68.5-35.9 18.3-18.3 30-40 35.6-65.7 2.5-11.8 2.7-34.2.4-47.2-4.9-27.1-16.6-49.7-35.5-68.6-25.1-25.2-56.8-38.3-92.6-38.3-7 0-12.9.1-13.1.3zm67.4 66.9c.4.6.5 2 .3 3.1-.4 1.9-1.7 27.7-1.8 35.7v3.7h-10.6c-14.6-.2-21 2.4-29.4 11.5-7.3 7.9-8.1 11.7-8.3 40.6-.2 14-.3 26.3-.3 27.2-.1 1.7-2 1.8-24.6 1.8H84V71h23.4c17.8 0 23.5.3 23.8 1.2.3.7.4 5.7.3 11l-.1 9.7 3.4-5.2c7.1-10.8 19.6-19.3 30.3-20.4 3-.3 5.5-.7 5.7-.8.8-.7 11.8.9 12.4 1.9z"/></svg>